<svg xmlns="http://www.w3.org/2000/svg" viewBox="0 0 64 64">
  <!-- Globe circle with gradient -->
  <defs>
    <linearGradient id="globeGradient" x1="0%" y1="0%" x2="100%" y2="100%">
      <stop offset="0%" style="stop-color:#3B82F6;stop-opacity:1" />
      <stop offset="100%" style="stop-color:#8B5CF6;stop-opacity:1" />
    </linearGradient>
    <linearGradient id="landGradient" x1="0%" y1="0%" x2="100%" y2="100%">
      <stop offset="0%" style="stop-color:#10B981;stop-opacity:1" />
      <stop offset="100%" style="stop-color:#059669;stop-opacity:1" />
    </linearGradient>
  </defs>
  
  <!-- Main globe circle -->
  <circle cx="32" cy="32" r="28" fill="url(#globeGradient)" opacity="0.1"/>
  <circle cx="32" cy="32" r="28" fill="none" stroke="url(#globeGradient)" stroke-width="2"/>
  
  <!-- Meridian lines -->
  <ellipse cx="32" cy="32" rx="28" ry="14" fill="none" stroke="url(#globeGradient)" stroke-width="1.5" opacity="0.5"/>
  <ellipse cx="32" cy="32" rx="14" ry="28" fill="none" stroke="url(#globeGradient)" stroke-width="1.5" opacity="0.5"/>
  
  <!-- Land masses (simplified continents) -->
  <path d="M 20 25 Q 28 22 35 24 T 42 28 Q 38 32 32 31 T 20 25" fill="url(#landGradient)" opacity="0.8"/>
  <path d="M 24 38 Q 30 36 34 38 T 38 42 Q 34 44 30 43 T 24 38" fill="url(#landGradient)" opacity="0.8"/>
  <path d="M 40 36 Q 44 34 46 36 T 44 40 Q 42 38 40 36" fill="url(#landGradient)" opacity="0.8"/>
  
  <!-- Location pin at top -->
  <g transform="translate(32, 12)">
    <path d="M 0 -4 C -3 -4 -5 -2 -5 1 C -5 4 0 10 0 10 C 0 10 5 4 5 1 C 5 -2 3 -4 0 -4 Z" fill="#EF4444"/>
    <circle cx="0" cy="0" r="1.5" fill="white"/>
  </g>
</svg>